<svg xmlns="http://www.w3.org/2000/svg" viewBox="0 0 64 64" id="globes"><g data-name="High Voltage"><polyline fill="#ffbc00" points="34 51 34 56 30 56 30 51"></polyline><path fill="#62bcdb" d="M20.62,60a1,1,0,0,1-.9-1.45l1-2a1,1,0,0,1,.9-.55H42.38a1,1,0,0,1,.9.55l1,2a1,1,0,0,1-.9,1.45Z"></path><circle cx="51" cy="7" r="3" fill="#f26a69"></circle><circle cx="11" cy="39" r="3" fill="#f26a69"></circle><path fill="#ffbc00" d="M14,39A23.42,23.42,0,0,0,50.78,10l3-1.92a27,27,0,0,1-42,33.82Z"></path><path fill="#62bcdb" d="M52,24a19.29,19.29,0,0,1-.15,2.42,19.71,19.71,0,0,1-1.33,5.15,20.27,20.27,0,0,1-3.38,5.5A20,20,0,0,1,32,44a19.54,19.54,0,0,1-3-.23A20,20,0,0,1,32,4,20,20,0,0,1,52,24Z"></path><path fill="#2bc936" d="M29 25a2.34 2.34 0 00-2 2c-1 4 2 3 2 3S35 28 29 25zM47.14 37.07A20 20 0 0132 44a19.54 19.54 0 01-3-.23c.21-1.91 2.19-15.14 18-6.77zM52 24a19.29 19.29 0 01-.15 2.42L51 27c-3.89 3.24-11.53 2.8-14 1.48a3 3 0 01-1.51-3.34C36 23 40.24 20.86 39 19c-2-3 0-4 1-6 .57-1.14.93-6 1-6.86A20 20 0 0152 24zM26.94 18.51C25 19 19.8 22.14 22 28c3 8-2 11-2 11l-.78.38A20 20 0 0117.72 10H18s9.1 0 10.9 4.69A2.91 2.91 0 0126.94 18.51z"></path><path d="M32 52a27.87 27.87 0 01-21-9.48 1 1 0 111.5-1.32 25.93 25.93 0 0035.83 3 1 1 0 111.26 1.56A28 28 0 0132 52zM52.13 43a1 1 0 01-.66-.26 1 1 0 01-.08-1.41A26.09 26.09 0 0053 8.66a1 1 0 011.62-1.18 28.1 28.1 0 01-1.73 35.19A1 1 0 0152.13 43z"></path><path d="M20 45.12a1 1 0 01-.51-.14 24.14 24.14 0 01-6.26-5.36 1 1 0 111.54-1.28 22.15 22.15 0 005.74 4.92A1 1 0 0120 45.12zM32.06 48.45A24.56 24.56 0 0123.66 47a1 1 0 01.68-1.88A22.43 22.43 0 0050 10.59a1 1 0 011.6-1.2A24.45 24.45 0 0132.06 48.45z"></path><path d="M32,45A21,21,0,0,1,11.66,18.75,1,1,0,0,1,12.88,18a1,1,0,0,1,.72,1.22,19,19,0,1,0,1.94-4.75,1,1,0,1,1-1.73-1A21,21,0,1,1,32,45Z"></path><path d="M51 11a4 4 0 114-4A4 4 0 0151 11zm0-6a2 2 0 102 2A2 2 0 0051 5zM11 43a4 4 0 114-4A4 4 0 0111 43zm0-6a2 2 0 102 2A2 2 0 0011 37z"></path><path d="M47 11.73A1 1 0 0146.38 10l1.46-1.17a1 1 0 111.25 1.57l-1.47 1.17A1 1 0 0147 11.73zM15.33 37a1 1 0 01-.92-.62 1 1 0 01-.08-.38 1 1 0 01.3-.71 1 1 0 01.9-.27.64.64 0 01.18.06l.18.09.15.12a1 1 0 01.29.71 1 1 0 01-.07.38 1.46 1.46 0 01-.22.33l-.15.12-.18.09a.64.64 0 01-.18.06z"></path><path d="M13.54 38.44a1 1 0 01-.63-1.79l1.8-1.43A1 1 0 0116 36.78l-1.8 1.44A1.07 1.07 0 0113.54 38.44zM20 40a1 1 0 01-.51-1.86c.16-.1 4.22-2.73 1.57-9.79a7.74 7.74 0 01.23-6.44 9.33 9.33 0 015.4-4.37A1.92 1.92 0 0028 15c-1.28-3.31-7.63-4-10-4a1 1 0 010-2c.4 0 9.81.06 11.83 5.33a3.91 3.91 0 01-2.65 5.15 7.36 7.36 0 00-4.12 3.35 5.72 5.72 0 00-.12 4.82c3.25 8.68-2.37 12.17-2.43 12.21A1 1 0 0120 40zM42.46 30.47c-.65 0-1.19 0-1.54-.06a1 1 0 11.16-2c3 .23 6.93-.23 9.28-2.19a1 1 0 111.28 1.54C48.87 30.08 44.85 30.47 42.46 30.47zM36.77 29.36a1 1 0 01-.53-.15 4 4 0 01-1.73-4.31 7.54 7.54 0 012.18-3.12c.78-.81 1.75-1.81 1.48-2.23-1.9-2.85-.74-4.49.19-5.82a9.35 9.35 0 00.75-1.18A32.09 32.09 0 0040 6.07a1 1 0 011.07-.93A1 1 0 0142 6.21c-.09 1.37-.45 5.94-1.1 7.24A11 11 0 0140 14.88c-.87 1.24-1.31 1.85-.17 3.57s-.42 3.4-1.7 4.72a6.66 6.66 0 00-1.68 2.21 2 2 0 00.85 2.13 1 1 0 01-.53 1.85zM29 44.78h-.11a1 1 0 01-.88-1.1c.17-1.6 1.07-7 5.48-9.37 3.49-1.86 8.18-1.24 14 1.82a1 1 0 11-.94 1.76c-5.15-2.73-9.22-3.34-12.08-1.82C30.81 38 30.12 42.92 30 43.89A1 1 0 0129 44.78z"></path><path d="M28.26 31.11a2.4 2.4 0 01-1.68-.61c-.8-.74-1-2-.55-3.74A3.33 3.33 0 0129 24a1 1 0 01.49.11c.83.41 3.35 1.67 3.21 3.68s-2.81 3-3.34 3.16A3.6 3.6 0 0128.26 31.11zm.59-5.06A1.54 1.54 0 0028 27.24c-.29 1.18-.15 1.69 0 1.79s.57.08.75 0c.9-.3 2-1 2-1.4C30.68 27.41 30.31 26.83 28.85 26.05zM43.38 61H25a1 1 0 010-2H43.38l-1-2H21.62l-1 2a1 1 0 110 2 2 2 0 01-1.79-2.89l1-2A2 2 0 0121.62 55H42.38a2 2 0 011.79 1.11l1 2A2 2 0 0143.38 61z"></path><path d="M30 57a1 1 0 01-1-1V52a1 1 0 012 0v4A1 1 0 0130 57zM34 57a1 1 0 01-1-1V52a1 1 0 012 0v4A1 1 0 0134 57z"></path></g></svg>