<svg xmlns="http://www.w3.org/2000/svg" xmlns:xlink="http://www.w3.org/1999/xlink" data-name="1" viewBox="0 0 24 24" id="joystick"><defs><linearGradient id="a" x1="2" x2="22" y1="16.65" y2="16.65" gradientUnits="userSpaceOnUse"><stop offset="0" stop-color="#16b0e2"></stop><stop offset="1" stop-color="#6e5af0"></stop></linearGradient><linearGradient id="b" x1="5.38" x2="18.62" y1="6.65" y2="6.65" xlink:href="#a"></linearGradient><linearGradient id="c" x1="10.605" x2="13.395" y1="16.651" y2="16.651" xlink:href="#a"></linearGradient><linearGradient id="d" x1="4.717" x2="8.903" y1="16.651" y2="16.651" xlink:href="#a"></linearGradient><linearGradient id="e" x1="15.153" x2="19.339" y1="16.651" y2="16.651" xlink:href="#a"></linearGradient></defs><path fill="url(#a)" d="M17.07,11.3H6.93A5.158,5.158,0,0,0,2,16.65,5.158,5.158,0,0,0,6.93,22a4.41,4.41,0,0,0,3.77-1.86h2.6A4.41,4.41,0,0,0,17.07,22,5.158,5.158,0,0,0,22,16.65,5.158,5.158,0,0,0,17.07,11.3Z" opacity=".4"></path><path fill="url(#b)" d="M18.62,8.1a1.963,1.963,0,0,1-1.97,1.95H13.27a.551.551,0,0,0-.57.54v.71H11.3v-.71a1.955,1.955,0,0,1,1.97-1.94h3.38a.55.55,0,1,0,0-1.1H7.35a1.945,1.945,0,1,1,0-3.89h4.23a.559.559,0,0,0,.57-.55V2.7a.7.7,0,1,1,1.39,0v.41a1.955,1.955,0,0,1-1.96,1.95H7.35a.553.553,0,0,0-.57.55.559.559,0,0,0,.57.55h9.3A1.955,1.955,0,0,1,18.62,8.1Z"></path><path fill="url(#c)" d="M12.7,17.349H11.3a.7.7,0,0,1,0-1.4h1.4a.7.7,0,0,1,0,1.4Z"></path><path fill="url(#d)" d="M8.9,16.651a.7.7,0,0,1-.7.7h-.7v.7a.7.7,0,0,1-1.4,0v-.7h-.7a.7.7,0,1,1,0-1.4h.7v-.7a.7.7,0,1,1,1.4,0v.7h.7A.7.7,0,0,1,8.9,16.651Z"></path><path fill="url(#e)" d="M17.246,15.953a.677.677,0,0,1-.27-.056.581.581,0,0,1-.223-.148.7.7,0,0,1,0-.986.709.709,0,0,1,.223-.149.676.676,0,0,1,.54,0,.7.7,0,0,1-.27,1.339Zm.493,2.587a.7.7,0,0,0,.2-.493.666.666,0,0,0-.056-.27.731.731,0,0,0-.149-.224.7.7,0,0,0-.763-.149.727.727,0,0,0-.223.149.7.7,0,0,0,0,.987.742.742,0,0,0,.223.148.677.677,0,0,0,.27.056A.7.7,0,0,0,17.739,18.54Zm-1.395-1.4a.7.7,0,0,0,.2-.493.706.706,0,0,0-.056-.27.727.727,0,0,0-.149-.223.7.7,0,0,0-.763-.149.577.577,0,0,0-.223.149.6.6,0,0,0-.149.223.706.706,0,0,0-.056.27.7.7,0,0,0,.205.493.588.588,0,0,0,.223.149.673.673,0,0,0,.27.056A.7.7,0,0,0,16.344,17.144Zm2.567.149a.6.6,0,0,0,.224-.149.7.7,0,0,0,.2-.493.688.688,0,0,0-.056-.27.706.706,0,0,0-.148-.223.587.587,0,0,0-.224-.149.7.7,0,0,0-.762.149.6.6,0,0,0-.149.223.69.69,0,0,0,.149.763.688.688,0,0,0,.762.149Z"></path></svg>