<svg xmlns="http://www.w3.org/2000/svg" viewBox="0 0 64 64" id="graduation"><path fill="#f26a69" d="M13,30.37v9A9.05,9.05,0,0,0,17,46.81q15.12,10.39,30.13,0A9.06,9.06,0,0,0,51,39.35v-9"></path><path fill="#62bcdb" d="M6.57,23.71l22.28-9.55a8,8,0,0,1,6.3,0l22.28,9.55a2.14,2.14,0,0,1,0,3.94L35.15,37.2a8,8,0,0,1-6.3,0L6.57,27.65A2.14,2.14,0,0,1,6.57,23.71Z"></path><path d="M32 38.84a9.08 9.08 0 01-3.55-.72L6.18 28.57a3.14 3.14 0 010-5.78l22.27-9.55a9.11 9.11 0 017.1 0l22.27 9.55a3.14 3.14 0 010 5.78L35.55 38.12A9.08 9.08 0 0132 38.84zM7 24.63a1.14 1.14 0 000 2.1l22.28 9.55a7.05 7.05 0 005.52 0L57 26.73a1.14 1.14 0 000-2.1L34.76 15.08a7.05 7.05 0 00-5.52 0zM56.67 40.62a1 1 0 01-1-1v-7.5a1 1 0 012 0v7.5A1 1 0 0156.67 40.62z"></path><path d="M32,53q-7.83,0-15.63-5.35A10.07,10.07,0,0,1,12,39.36V35a1,1,0,0,1,2,0v4.36A8.09,8.09,0,0,0,17.52,46c9.78,6.72,19.26,6.72,29,0A8.09,8.09,0,0,0,50,39.35V35a1,1,0,0,1,2,0v4.35a10.05,10.05,0,0,1-4.36,8.26C42.47,51.2,37.25,53,32,53Z"></path></svg>