<svg xmlns="http://www.w3.org/2000/svg" enable-background="new 0 0 60 60" viewBox="0 0 60 60" id="music"><path fill="#fff" d="M50,60H10C4.477,60,0,55.523,0,50V10C0,4.477,4.477,0,10,0h40c5.523,0,10,4.477,10,10v40
		C60,55.523,55.523,60,50,60z"></path><g><path fill="#b578d3" d="M30,55C16.215,55,5,43.785,5,30c0-5.507,1.755-10.729,5.076-15.103c0.334-0.438,0.961-0.525,1.401-0.192
		c0.44,0.334,0.526,0.962,0.192,1.401C8.614,20.13,7,24.934,7,30c0,12.683,10.318,23,23,23s23-10.317,23-23S42.682,7,30,7
		c-5.888,0.001-11.49,2.224-15.771,6.26c-0.402,0.38-1.034,0.361-1.414-0.042c-0.379-0.401-0.36-1.034,0.042-1.413
		C17.511,7.418,23.6,5.001,30,5c13.785,0,25,11.215,25,25S43.785,55,30,55z"></path><circle cx="30" cy="30" r="21" fill="#bbb3ff"></circle><path fill="#fff" d="M40,34h-5c-1.657,0-3,1.343-3,3v0c0,1.657,1.343,3,3,3h2c1.657,0,3-1.343,3-3V34z"></path><path fill="#b578d3" d="M37,41h-2c-2.206,0-4-1.794-4-4s1.794-4,4-4h5c0.552,0,1,0.447,1,1v3C41,39.206,39.206,41,37,41z M35,35
			c-1.103,0-2,0.897-2,2s0.897,2,2,2h2c1.103,0,2-0.897,2-2v-2H35z"></path><path fill="#fff" d="M24,38h-5c-1.657,0-3,1.343-3,3v0c0,1.657,1.343,3,3,3h2c1.657,0,3-1.343,3-3V38z"></path><path fill="#b578d3" d="M21,45h-2c-2.206,0-4-1.794-4-4s1.794-4,4-4h5c0.552,0,1,0.447,1,1v3C25,43.206,23.206,45,21,45z M19,39
			c-1.103,0-2,0.897-2,2s0.897,2,2,2h2c1.103,0,2-0.897,2-2v-2H19z"></path><polygon fill="#fff" points="24 26 40 22 40 16 24 20"></polygon><path fill="#b578d3" d="M24,27c-0.221,0-0.438-0.073-0.615-0.212C23.142,26.599,23,26.308,23,26v-6c0-0.459,0.312-0.858,0.757-0.97
			l16-4c0.297-0.077,0.615-0.008,0.858,0.182S41,15.692,41,16v6c0,0.459-0.312,0.858-0.757,0.97l-16,4C24.163,26.99,24.081,27,24,27
			z M25,20.781v3.938l14-3.5v-3.938L25,20.781z"></path><path fill="#b578d3" d="M40 35c-.552 0-1-.447-1-1V22c0-.553.448-1 1-1s1 .447 1 1v12C41 34.553 40.552 35 40 35zM24 39c-.552 0-1-.447-1-1V26c0-.553.448-1 1-1s1 .447 1 1v12C25 38.553 24.552 39 24 39z"></path></g></svg>